<svg xmlns="http://www.w3.org/2000/svg" viewBox="0 0 512 512">
<defs>
<linearGradient id="b" x1="0" y1="1" x2="1" y2="0"><stop stop-color="#1765ff"/><stop offset=".55" stop-color="#4d58ff"/><stop offset="1" stop-color="#7c4cf5"/></linearGradient>
<radialGradient id="g"><stop stop-color="#a8b8ff" stop-opacity=".22"/><stop offset="1" stop-color="#a8b8ff" stop-opacity="0"/></radialGradient>
</defs>
<rect width="512" height="512" rx="108" fill="url(#b)"/>
<ellipse cx="260" cy="250" rx="230" ry="220" fill="url(#g)"/>
<path d="M260 112c-35 37-50 71-45 104 4 27 24 44 10 70-10 20-38 18-45 47-10 43 23 82 70 88 57 8 108-22 120-70 14-57-25-98-64-128-18-14-28-34-32-56-3-18-7-38-14-55z" fill="none" stroke="#fff" stroke-width="25" stroke-linecap="round" stroke-linejoin="round"/>
</svg>